# xmcd
#
# Track frame offsets: 
#        150
#        15539
#        45359
#        64113
#        81280
#        92893
#        116873
#        134506
#        160388
#        174382
#        187387
#
# Disc length: 2810 seconds
#
# Revision: 0
# Processed by: cddbd v1.5.2PL0 Copyright (c) Steve Scherf et al.
# Submitted via: ExactAudioCopy v0.95b3
#
DISCID=980af80b
DTITLE=Christopher Amott - Impulses
DYEAR=2012
DGENRE=Psychedelic Rock
TTITLE0=Sea Is Black
TTITLE1=Lone Wolf
TTITLE2=Dream Away
TTITLE3=Nothing Is Nothing
TTITLE4=Castle Of Sighs
TTITLE5=The Storm
TTITLE6=Back To The Jungle
TTITLE7=Calling Out
TTITLE8=Under The Surface
TTITLE9=Shutout
TTITLE10=Big City
EXTD=
EXTT0=
EXTT1=
EXTT2=
EXTT3=
EXTT4=
EXTT5=
EXTT6=
EXTT7=
EXTT8=
EXTT9=
EXTT10=
PLAYORDER=
